# xmcd
#
# Track frame offsets:
#	150
#	17327
#	33904
#
# Disc length: 592 seconds
#
# Revision: 1
# Processed by: cddbd v1.5.2PL0 Copyright (c) Steve Scherf et al.
# Submitted via: audiograbber 1.83.01
#
DISCID=13024e03
DTITLE=The Corrs - Runaway (Australia CD)
DYEAR=1995
DGENRE=Pop
TTITLE0=Runaway (Radio Mix)
TTITLE1=Leave Me Alone
TTITLE2=Special Previews- Forgiven, Not Forgotten - Toss The Feathers - Heaven 
TTITLE2=Knows
EXTD=
EXTT0=Forgiven, Not Forgotten
EXTT1=Toss The Feathers
EXTT2=Special preview of the Corrs debut album 'Forgiven, Not Forgotten\n\nTrac
EXTT2=k3A - Forgiven, Not Forgotten\nTrack 3B - Runaway (Radio Mix]\nTrack 3B -
EXTT2=Leave Me Alone 
PLAYORDER=
